<svg id="Layer_1" data-name="Layer 1" xmlns="http://www.w3.org/2000/svg" viewBox="0 0 379.57 455.55"><defs><style>.cls-1{fill:#d1cfcf;}</style></defs><title>1</title><path class="cls-1" d="M394.29,478.71H109.57a47.47,47.47,0,0,1-47.42-47.43V70.58a47.46,47.46,0,0,1,47.42-47.42H394.29a47.47,47.47,0,0,1,47.43,47.42V431.2A47.49,47.49,0,0,1,394.29,478.71ZM109.57,42.11A28.55,28.55,0,0,0,81.1,70.58V431.2a28.55,28.55,0,0,0,28.47,28.47H394.29a28.55,28.55,0,0,0,28.47-28.47V70.58a28.55,28.55,0,0,0-28.47-28.47Z" transform="translate(-62.15 -23.16)"/><path class="cls-1" d="M375.34,250.93h-38a9.52,9.52,0,0,1,0-19h38a9.52,9.52,0,1,1,0,19Z" transform="translate(-62.15 -23.16)"/><path class="cls-1" d="M375.34,194h-38a9.52,9.52,0,0,1,0-19h38a9.52,9.52,0,1,1,0,19Z" transform="translate(-62.15 -23.16)"/><path class="cls-1" d="M375.34,307.88h-38a9.52,9.52,0,0,1,0-19h38a9.52,9.52,0,1,1,0,19Z" transform="translate(-62.15 -23.16)"/><path class="cls-1" d="M375.34,364.82h-38a9.52,9.52,0,0,1,0-19h38a9.52,9.52,0,0,1,0,19Z" transform="translate(-62.15 -23.16)"/><path class="cls-1" d="M375.34,421.76H128.53a9.52,9.52,0,0,1,0-19H375.25a9.52,9.52,0,0,1,.09,19Z" transform="translate(-62.15 -23.16)"/><path class="cls-1" d="M213.94,364.82a94.94,94.94,0,1,1,94.94-94.94A95.08,95.08,0,0,1,213.94,364.82Zm0-170.83a75.9,75.9,0,1,0,75.9,75.89A76,76,0,0,0,213.94,194Z" transform="translate(-62.15 -23.16)"/><path class="cls-1" d="M153.62,339.82a9.56,9.56,0,0,1-6.77-2.76,9.46,9.46,0,0,1,0-13.43L204.51,266v-81.5a9.52,9.52,0,0,1,19,0v85.41a9.8,9.8,0,0,1-2.76,6.77l-60.5,60.41A9.74,9.74,0,0,1,153.62,339.82Z" transform="translate(-62.15 -23.16)"/></svg>