<svg id="Layer_1" data-name="Layer 1" xmlns="http://www.w3.org/2000/svg" viewBox="0 0 455.55 405.32"><defs><style>.cls-1{fill:#d1cfcf;}</style></defs><title>2</title><path class="cls-1" d="M479.71,250.91a25.09,25.09,0,0,0-14-22.6l-33.9-17,33.9-17h0a25.27,25.27,0,0,0,0-45.2L274.27,53.48a50.52,50.52,0,0,0-44.67,0L38.13,149.21a25.27,25.27,0,0,0,0,45.2l33.9,17-33.9,17a25.19,25.19,0,0,0,0,45.11l33.9,17-33.9,17a25.19,25.19,0,0,0,0,45.11L229.6,448.35a50.13,50.13,0,0,0,44.67,0l191.47-95.74a25.27,25.27,0,0,0,0-45.2l-33.9-17,33.9-17A24.86,24.86,0,0,0,479.71,250.91ZM47.47,175.64a4.22,4.22,0,0,1-2.4-3.83,4.13,4.13,0,0,1,2.4-3.82L238.94,72.16a29.45,29.45,0,0,1,26,0L456.4,167.9a4.23,4.23,0,0,1,2.4,3.82,4,4,0,0,1-2.4,3.83L264.92,271.38a28.85,28.85,0,0,1-25.89,0ZM456.4,326.18a4.24,4.24,0,0,1,2.4,3.83,4.16,4.16,0,0,1-2.4,3.91L264.92,429.66a28.85,28.85,0,0,1-25.89,0L47.47,333.92a4.23,4.23,0,0,1-2.4-3.91,4,4,0,0,1,2.4-3.83l48-24L229.6,369.25a50.13,50.13,0,0,0,44.67,0l134.17-67.09Zm0-71.44L264.92,350.47a28.79,28.79,0,0,1-25.89,0L47.47,254.74a4.22,4.22,0,0,1-2.4-3.83,4,4,0,0,1,2.4-3.82l48-24L229.6,290.15a50.13,50.13,0,0,0,44.67,0l134.17-67.09,48,24a4.22,4.22,0,0,1,2.4,3.82A4.16,4.16,0,0,1,456.4,254.74Z" transform="translate(-24.16 -48.27)"/></svg>