<svg id="Layer_1" data-name="Layer 1" xmlns="http://www.w3.org/2000/svg" viewBox="0 0 417.47 455.55"><defs><style>.cls-1{fill:#d1cfcf;}</style></defs><title>3</title><path class="cls-1" d="M413.24,478.71H185.47a47.47,47.47,0,0,1-47.42-47.43V146.57a47.47,47.47,0,0,1,47.42-47.43H413.24a47.47,47.47,0,0,1,47.43,47.43V431.28A47.42,47.42,0,0,1,413.24,478.71ZM185.47,118.09A28.56,28.56,0,0,0,157,146.57V431.28a28.56,28.56,0,0,0,28.47,28.48H413.24a28.57,28.57,0,0,0,28.48-28.48V146.57a28.57,28.57,0,0,0-28.48-28.48Z" transform="translate(-43.2 -23.16)"/><path class="cls-1" d="M109.57,421.76H90.62A47.46,47.46,0,0,1,43.2,374.34V70.58A47.4,47.4,0,0,1,90.62,23.16H318.4a47.46,47.46,0,0,1,47.42,47.42,9.52,9.52,0,1,1-19,0,28.55,28.55,0,0,0-28.47-28.47H90.53A28.55,28.55,0,0,0,62.06,70.58V374.25a28.55,28.55,0,0,0,28.47,28.47h19a9.52,9.52,0,1,1,0,19Z" transform="translate(-43.2 -23.16)"/><path class="cls-1" d="M375.34,345.87H223.46a9.52,9.52,0,1,1,0-19H375.34a9.52,9.52,0,0,1,0,19Z" transform="translate(-43.2 -23.16)"/><path class="cls-1" d="M375.34,421.76H223.46a9.52,9.52,0,0,1,0-19H375.34a9.52,9.52,0,1,1,0,19Z" transform="translate(-43.2 -23.16)"/><path class="cls-1" d="M375.34,269.88H223.46a9.48,9.48,0,1,1,0-18.95H375.34a9.48,9.48,0,1,1,0,18.95Z" transform="translate(-43.2 -23.16)"/><path class="cls-1" d="M375.34,194H223.46a9.52,9.52,0,0,1,0-19H375.34a9.52,9.52,0,1,1,0,19Z" transform="translate(-43.2 -23.16)"/></svg>