<?xml version="1.0" encoding="utf-8"?>
<!-- Generator: Adobe Illustrator 22.1.0, SVG Export Plug-In . SVG Version: 6.00 Build 0)  -->
<svg version="1.1" id="_x31_" xmlns="http://www.w3.org/2000/svg" xmlns:xlink="http://www.w3.org/1999/xlink" x="0px" y="0px"
	 viewBox="0 0 512 512" style="enable-background:new 0 0 512 512;" xml:space="preserve">
<style type="text/css">
	.st0{fill:#FFFFFF;}
</style>
<g>
	<path class="st0" d="M416,512H96c-29.4,0-53.3-23.9-53.3-53.3V53.3C42.7,23.9,66.6,0,96,0h320c29.4,0,53.3,23.9,53.3,53.3v405.3
		C469.3,488.1,445.4,512,416,512z M96,21.3c-17.6,0-32,14.4-32,32v405.3c0,17.6,14.4,32,32,32h320c17.6,0,32-14.4,32-32V53.3
		c0-17.6-14.4-32-32-32H96z"/>
	<path class="st0" d="M394.7,256H352c-5.9,0-10.7-4.8-10.7-10.7s4.8-10.7,10.7-10.7h42.7c5.9,0,10.7,4.8,10.7,10.7
		S400.6,256,394.7,256z"/>
	<path class="st0" d="M394.7,192H352c-5.9,0-10.7-4.8-10.7-10.7s4.8-10.7,10.7-10.7h42.7c5.9,0,10.7,4.8,10.7,10.7
		S400.6,192,394.7,192z"/>
	<path class="st0" d="M394.7,320H352c-5.9,0-10.7-4.8-10.7-10.7s4.8-10.7,10.7-10.7h42.7c5.9,0,10.7,4.8,10.7,10.7
		S400.6,320,394.7,320z"/>
	<path class="st0" d="M394.7,384H352c-5.9,0-10.7-4.8-10.7-10.7s4.8-10.7,10.7-10.7h42.7c5.9,0,10.7,4.8,10.7,10.7
		S400.6,384,394.7,384z"/>
	<path class="st0" d="M394.7,448H117.3c-5.9,0-10.7-4.8-10.7-10.7s4.8-10.7,10.7-10.7h277.3c5.9,0,10.7,4.8,10.7,10.7
		S400.6,448,394.7,448z"/>
	<path class="st0" d="M213.3,384c-58.8,0-106.7-47.9-106.7-106.7s47.9-106.7,106.7-106.7S320,218.5,320,277.3S272.1,384,213.3,384z
		 M213.3,192c-47.1,0-85.3,38.3-85.3,85.3s38.3,85.3,85.3,85.3s85.3-38.3,85.3-85.3S260.4,192,213.3,192z"/>
	<path class="st0" d="M145.5,355.9c-2.7,0-5.5-1-7.6-3.1c-4.2-4.2-4.2-10.9,0-15.1l64.8-64.8v-91.6c0-5.9,4.8-10.7,10.7-10.7
		s10.7,4.8,10.7,10.7v96c0,2.8-1.1,5.5-3.1,7.6L153,352.8C150.9,354.8,148.2,355.9,145.5,355.9z"/>
</g>
</svg>
