<?xml version="1.0" encoding="utf-8"?>
<!-- Generator: Adobe Illustrator 22.1.0, SVG Export Plug-In . SVG Version: 6.00 Build 0)  -->
<svg version="1.1" id="Layer_1" xmlns="http://www.w3.org/2000/svg" xmlns:xlink="http://www.w3.org/1999/xlink" x="0px" y="0px"
	 viewBox="0 0 512 512" style="enable-background:new 0 0 512 512;" xml:space="preserve">
<style type="text/css">
	.st0{fill:#FFFFFF;}
</style>
<g>
	<g>
		<path class="st0" d="M512,256c0-10.8-6-20.6-15.7-25.4l-38.1-19.1l38.1-19.1c0,0,0,0,0,0c9.7-4.8,15.7-14.6,15.7-25.4
			c0-10.8-6-20.6-15.7-25.4L281.1,34.1c-15.7-7.8-34.5-7.8-50.2,0L15.7,141.7C6,146.5,0,156.3,0,167.1c0,10.8,6,20.6,15.7,25.4
			l38.1,19.1l-38.1,19.1C6,235.4,0,245.2,0,256s6,20.6,15.7,25.4l38.1,19.1l-38.1,19.1C6,324.4,0,334.1,0,344.9
			c0,10.8,6,20.6,15.7,25.4l215.2,107.6c7.9,3.9,16.5,5.9,25.1,5.9s17.2-2,25.1-5.9l215.2-107.6c9.7-4.8,15.7-14.6,15.7-25.4
			c0-10.8-6-20.5-15.7-25.4l-38.1-19.1l38.1-19.1C506,276.6,512,266.8,512,256z M26.2,171.4c-2.3-1.2-2.7-3.2-2.7-4.3
			s0.4-3.2,2.7-4.3L241.4,55.1c4.6-2.3,9.6-3.4,14.6-3.4c5,0,10,1.1,14.6,3.4l215.2,107.6c2.3,1.2,2.7,3.2,2.7,4.3s-0.3,3.2-2.7,4.3
			L270.6,279c-9.1,4.6-20,4.6-29.1,0L26.2,171.4z M485.8,340.6c2.3,1.2,2.7,3.2,2.7,4.3c0,1.1-0.3,3.2-2.7,4.4L270.6,456.9
			c-9.1,4.6-20,4.6-29.1,0L26.2,349.3c-2.3-1.2-2.7-3.2-2.7-4.4c0-1.1,0.3-3.2,2.7-4.3l53.9-27L230.9,389c7.9,3.9,16.5,5.9,25.1,5.9
			c8.6,0,17.2-2,25.1-5.9l150.8-75.4L485.8,340.6z M485.8,260.3L270.6,367.9c-9.1,4.6-20,4.6-29.1,0L26.2,260.3
			c-2.3-1.2-2.7-3.2-2.7-4.3c0-1.1,0.3-3.2,2.7-4.3l53.9-27l150.8,75.4c7.9,3.9,16.5,5.9,25.1,5.9c8.6,0,17.2-2,25.1-5.9l150.8-75.4
			l53.9,27c2.3,1.2,2.7,3.2,2.7,4.3C488.5,257.1,488.1,259.2,485.8,260.3z"/>
	</g>
</g>
</svg>
